<svg xmlns="http://www.w3.org/2000/svg" width="317" height="40" viewBox="0 0 317 40" fill="none">
<path d="M34.2203 28.114C34.2203 34.4463 30.2333 39.4431 21.8357 39.4431H0V0H21.5517C29.2778 0 33.3991 3.72309 33.3991 9.88526C33.3991 14.1085 31.1474 17.4965 26.7265 18.667C31.5761 19.4972 34.2151 22.8851 34.2151 28.114H34.2203ZM10.9437 15.5524H18.0449C20.5911 15.5524 21.8357 13.9951 21.8357 11.7726C21.8357 9.55008 20.5911 8.21452 18.0449 8.21452H10.9437V15.5524ZM22.6517 27.0517C22.6517 24.6075 21.1178 23.1069 18.4788 23.1069H10.9437V31.2131H18.4788C21.2624 31.2131 22.6517 29.4341 22.6517 27.0465V27.0517Z" fill="white"/>
<path d="M47.4932 9.33351V16.001H65.1456V24.8911H47.4932V39.4482H36.5495V0H65.1456V9.33351H47.4932Z" fill="white"/>
<path d="M96.7062 0L90.3021 25.02L83.8981 0H68.0068V39.4431H78.0415V11.0455L85.5301 39.4431H95.0742L102.568 11.0455V39.4431H112.597V0H96.7062Z" fill="white"/>
<path d="M123.536 0.00515663H137.134C144.767 0.00515663 149.565 3.97576 149.565 10.3287C149.565 14.9078 146.89 17.8729 142.939 19.1156V19.1672C147.365 19.884 151.156 23.0037 151.156 28.5626C151.156 35.1528 146.518 39.4431 137.718 39.4431H123.536V0.00515663ZM137.692 17.8162C142.753 17.8162 146.017 14.7738 146.017 10.5092C146.017 5.98169 142.624 3.22805 137.269 3.22805H127.115V17.811H137.692V17.8162ZM137.718 36.2099C143.946 36.2099 147.5 33.4305 147.5 28.6915C147.5 23.9526 143.6 20.9875 137.904 20.9875H127.115V36.2047H137.718V36.2099Z" fill="white"/>
<path d="M155.773 11.4941H159.166V28.9339C159.166 33.9358 162.058 36.7668 166.645 36.7668C171.231 36.7668 174.758 33.9616 174.758 28.4543V11.4941H178.177V39.4482H174.835V34.9723C172.956 38.3602 169.8 39.9484 166.061 39.9484C160.282 39.9484 155.773 36.1119 155.773 29.1504V11.4941Z" fill="white"/>
<path d="M182.551 31.079H185.944C186.208 34.8382 188.78 37.0092 193.237 37.0092C197.694 37.0092 200.343 34.8898 200.343 31.8474C200.343 29.4134 198.489 28.248 195.494 27.557L190.882 26.4742C185.82 25.283 183.166 22.9006 183.166 18.9558C183.166 14.2426 187.22 10.9372 193.133 10.9372C199.047 10.9372 202.967 14.2993 203.21 19.8582H199.868C199.682 16.2331 197.193 13.9281 193.133 13.9281C189.074 13.9281 186.585 16.0732 186.585 18.9558C186.585 21.3897 188.413 22.6892 191.594 23.4317L196.232 24.5146C201.293 25.7316 203.762 27.8768 203.762 31.7958C203.762 36.8493 199.388 40 193.319 40C187.251 40 182.877 36.8751 182.556 31.079H182.551Z" fill="white"/>
<path d="M207.951 1.14477H211.664V5.16695H207.951V1.14477ZM208.111 11.4941H211.504V39.4482H208.111V11.4941Z" fill="white"/>
<path d="M220.65 39.4431H217.257V11.4941H220.599V15.9649C222.478 12.577 225.634 10.9888 229.347 10.9888C235.152 10.9888 239.661 14.8253 239.661 21.7868V39.4431H236.242V22.0034C236.242 17.0014 233.381 14.1704 228.795 14.1704C224.209 14.1704 220.655 16.9756 220.655 22.4829V39.4482L220.65 39.4431Z" fill="white"/>
<path d="M243.849 25.4944C243.849 17.0478 249.045 10.9372 256.389 10.9372C263.733 10.9372 268.903 16.8931 268.903 25.283V26.3401H247.242C247.377 32.559 250.899 36.8751 256.601 36.8751C260.841 36.8751 264.022 34.5752 265.003 31.079H268.422C267.281 36.4265 262.483 40 256.601 40C248.725 40 243.849 33.8842 243.849 25.4944ZM265.484 23.3492C265.112 17.7388 261.507 14.0054 256.389 14.0054C251.271 14.0054 247.749 17.713 247.268 23.3492H265.484Z" fill="white"/>
<path d="M271.609 31.079H275.002C275.265 34.8382 277.837 37.0092 282.294 37.0092C286.751 37.0092 289.401 34.8898 289.401 31.8474C289.401 29.4134 287.547 28.248 284.551 27.557L279.939 26.4742C274.878 25.283 272.223 22.9006 272.223 18.9558C272.223 14.2426 276.278 10.9372 282.191 10.9372C288.104 10.9372 292.024 14.2993 292.267 19.8582H288.926C288.74 16.2331 286.25 13.9281 282.191 13.9281C278.132 13.9281 275.642 16.0732 275.642 18.9558C275.642 21.3897 277.471 22.6892 280.652 23.4317L285.29 24.5146C290.351 25.7316 292.82 27.8768 292.82 31.7958C292.82 36.8493 288.445 40 282.377 40C276.309 40 271.934 36.8751 271.614 31.079H271.609Z" fill="white"/>
<path d="M295.789 31.079H299.182C299.446 34.8382 302.018 37.0092 306.475 37.0092C310.932 37.0092 313.581 34.8898 313.581 31.8474C313.581 29.4134 311.727 28.248 308.732 27.557L304.12 26.4742C299.058 25.283 296.404 22.9006 296.404 18.9558C296.404 14.2426 300.458 10.9372 306.371 10.9372C312.285 10.9372 316.205 14.2993 316.447 19.8582H313.106C312.92 16.2331 310.431 13.9281 306.371 13.9281C302.312 13.9281 299.823 16.0732 299.823 18.9558C299.823 21.3897 301.651 22.6892 304.832 23.4317L309.47 24.5146C314.531 25.7316 317 27.8768 317 31.7958C317 36.8493 312.626 40 306.557 40C300.489 40 296.115 36.8751 295.794 31.079H295.789Z" fill="white"/>
</svg>
