<svg width="709" height="709" viewBox="0 0 709 709" fill="none" xmlns="http://www.w3.org/2000/svg">
<g clip-path="url(#clip0_18532_102094)">
<path fill-rule="evenodd" clip-rule="evenodd" d="M9.78125 354.907H47.494C57.0071 354.975 65.7048 356.334 73.5871 358.984C81.3335 361.634 87.653 366.119 92.4435 372.642C97.2001 378.893 99.5784 387.285 99.5784 397.818C99.5784 405.768 98.0155 412.699 94.8897 418.611C91.764 424.658 87.5171 429.109 82.149 431.963V432.575C85.2067 434.138 88.0607 436.21 90.7108 438.792C93.2929 441.306 95.5693 444.33 97.5398 447.864C99.3745 451.261 100.869 455.066 102.025 459.279C102.976 463.56 103.452 468.079 103.452 472.836C103.452 486.494 99.4764 497.502 91.5262 505.86C83.5759 514.218 71.4807 518.397 55.2404 518.397H9.78125V354.907ZM42.8054 386.912V419.936H51.1633C56.2597 419.936 60.1329 418.407 62.681 415.451C65.3311 412.597 66.6222 408.452 66.5542 403.016C66.5542 397.24 64.9234 393.095 61.6618 390.581C58.4001 388.135 54.4929 386.912 49.9402 386.912H42.8054ZM42.8054 452.043V486.188H51.673C64.2439 486.188 70.5294 480.616 70.5294 469.472C70.5294 462.473 68.8306 457.818 65.433 455.508C62.1034 453.198 57.3469 452.043 51.1633 452.043H42.8054Z" fill="#151255"/>
<path d="M213.435 355.111V461.726C213.435 474.093 211.091 484.829 206.402 493.934C201.713 503.176 195.224 510.175 186.934 514.931C178.678 519.722 169.097 522.168 158.395 522.168C148.304 522.168 139.538 520.129 131.996 515.95C124.351 511.771 118.541 505.452 114.362 496.788C110.082 488.226 108.043 477.524 108.043 464.579V354.907L139.538 355.111V453.062C139.538 459.381 140.15 464.987 141.271 469.574C142.494 474.364 144.533 478.136 147.488 480.888C150.274 483.674 154.182 485.067 159.21 485.067C168.587 485.067 174.703 481.601 177.659 474.568C180.581 467.569 182.042 457.479 182.042 444.296V354.907L213.435 355.111Z" fill="#151255"/>
<path d="M283.049 398.225C279.311 393.672 276.05 390.479 273.264 388.644C270.206 386.606 266.706 385.586 262.765 385.586C259.775 385.586 256.989 386.775 254.407 389.154C251.689 391.532 250.33 394.692 250.33 398.633C250.33 404.137 253.286 408.486 259.198 411.679C265.245 415.009 271.429 418.203 277.748 421.261C284.17 424.522 289.674 429.619 294.362 436.55C299.051 443.684 301.293 453.979 301.293 467.739C301.293 485.202 297.182 498.623 288.96 508C280.738 517.445 270.274 522.168 257.567 522.168C250.228 522.168 243.127 520.537 236.264 517.275C229.333 514.115 223.218 509.325 218.02 502.802L234.939 471.918C240.375 480.684 247.544 485.066 256.446 485.066C259.979 485.066 263.377 483.809 266.638 481.295C269.832 478.849 271.429 475.248 271.429 470.491C271.429 464.851 268.439 460.4 262.459 457.139C259.809 455.61 256.752 453.979 253.184 452.144L248.496 449.8L243.705 447.15C237.318 443.82 231.814 438.724 227.193 431.861C222.64 425.134 220.364 415.043 220.364 401.589C220.364 391.328 222.334 382.359 226.276 374.68C230.149 367.138 235.347 361.226 241.768 357.149C248.02 353.14 254.747 351.135 261.95 351.135C268.541 351.135 275.03 352.766 281.418 356.028C287.941 359.391 293.649 364.08 298.541 370.094L283.049 398.225Z" fill="#151255"/>
<path d="M305.879 369.176L337.374 351.645V518.397L305.879 518.295V369.176Z" fill="#151255"/>
<path d="M450.921 518.498L378.859 440.525L378.961 517.989H347.262V352.664L419.426 430.434V355.11H450.921V518.498Z" fill="#151255"/>
<path d="M523.596 518.397H459.586V354.907H529.915V389.664H491.081V417.999H523.596V452.348H491.081V483.946H523.596V518.397Z" fill="#151255"/>
<path d="M597.186 398.225C593.38 393.672 590.085 390.479 587.299 388.644C584.309 386.606 580.809 385.586 576.8 385.586C573.878 385.586 571.092 386.775 568.442 389.154C565.724 391.532 564.365 394.692 564.365 398.633C564.365 404.137 567.321 408.486 573.233 411.679C579.281 415.009 585.464 418.203 591.784 421.261C598.205 424.522 603.709 429.619 608.397 436.55C613.086 443.684 615.43 453.979 615.43 467.739C615.43 485.202 611.285 498.623 602.995 508C594.773 517.445 584.309 522.168 571.602 522.168C564.263 522.168 557.129 520.537 550.299 517.275C543.368 514.115 537.253 509.325 532.055 502.802L549.076 471.918C554.445 480.684 561.579 485.066 570.481 485.066C574.014 485.066 577.412 483.809 580.674 481.295C583.935 478.849 585.464 475.18 585.464 470.491C585.464 464.851 582.474 460.4 576.495 457.139C573.844 455.644 570.787 453.979 567.321 452.144L562.531 449.8L557.842 447.15C551.387 443.82 545.849 438.724 541.228 431.861C536.675 425.134 534.399 415.043 534.399 401.589C534.399 391.294 536.336 382.325 540.311 374.68C544.184 367.07 549.348 361.226 555.804 357.149C562.055 353.14 568.782 351.135 575.985 351.135C582.61 351.135 589.133 352.766 595.453 356.028C602.044 359.425 607.752 364.114 612.577 370.094L597.186 398.225Z" fill="#151255"/>
<path d="M679.545 398.225C675.808 393.672 672.512 390.479 669.658 388.644C666.668 386.606 663.169 385.586 659.16 385.586C656.238 385.586 653.486 386.775 650.904 389.154C648.152 391.6 646.725 394.658 646.725 398.633C646.725 404.137 649.783 408.52 655.694 411.679C661.674 415.009 667.823 418.203 674.143 421.261C680.564 424.522 686.068 429.619 690.859 436.55C695.446 443.684 697.79 453.979 697.79 467.739C697.79 485.202 693.645 498.623 685.355 508C677.201 517.445 666.77 522.168 654.063 522.168C646.657 522.168 639.522 520.537 632.659 517.275C625.728 514.082 619.646 509.257 614.414 502.802L631.436 471.918C636.872 480.684 644.007 485.066 652.84 485.066C656.408 485.066 659.771 483.843 663.033 481.295C666.227 478.849 667.823 475.248 667.823 470.491C667.823 464.885 664.868 460.4 658.854 457.139C656.204 455.61 653.146 453.979 649.681 452.144L644.992 449.8L640.201 447.15C633.746 443.82 628.242 438.724 623.689 431.861C619.001 425.134 616.758 415.043 616.758 401.589C616.758 391.328 618.729 382.359 622.67 374.68C626.543 367.07 631.708 361.226 638.163 357.149C644.482 353.14 651.209 351.135 658.344 351.135C665.003 351.135 671.527 352.766 677.914 356.028C684.437 359.425 690.111 364.114 694.936 370.094L679.545 398.225Z" fill="#151255"/>
<path d="M638.467 533.482L514.626 636.427L421.466 576.393L319.641 645.805L232.392 609.213L61.2581 709.101H-0.101562V707.164L227.704 571.806L315.972 606.563L421.568 534.909L513.403 594.128C513.403 594.128 607.583 516.868 607.889 516.868C616.043 524.818 619.203 527.774 638.467 533.482Z" fill="#151255"/>
<path fill-rule="evenodd" clip-rule="evenodd" d="M698.298 80.6226V327.692H626.848V169.197H626.134L583.529 327.692H527.164L484.661 169.197H483.947V327.692H412.497V139.434H306.29V176.841H375.396V233.614H306.391V327.692H230.864V278.156C218.939 310.67 184.793 327.692 149.833 327.692H10.7031V80.6226H145.042C209.561 80.6226 223.321 117.316 223.321 142.594C223.321 167.566 211.294 181.02 193.151 191.009C208.746 196.411 223.627 207.113 230.864 225.868V80.6226H520.029L555.092 225.97H555.703L590.766 80.6226H698.298ZM86.1286 176.841H126.186C141.984 176.841 151.973 172.356 151.973 156.456C151.973 143.919 141.678 139.434 126.186 139.434H86.1286V176.841ZM160.127 245.437C160.127 230.862 151.565 222.912 133.728 222.912H86.3325V268.881H130.569C146.469 268.881 160.127 264.396 160.127 245.437Z" fill="#151255"/>
</g>
<defs>
<clipPath id="clip0_18532_102094">
<rect width="709" height="709" fill="white"/>
</clipPath>
</defs>
</svg>
