<?xml version="1.0" encoding="UTF-8"?>
<svg id="Calque_2" data-name="Calque 2" xmlns="http://www.w3.org/2000/svg" viewBox="0 0 3134.9 376.03">
  <defs>
    <style>
      .cls-1 {
        fill: #fff;
      }
    </style>
  </defs>
  <g id="Calque_2-2" data-name="Calque 2">
    <g>
      <polygon class="cls-1" points="2803.29 368.67 2693.63 368.76 2557.18 199.55 2556.95 368.71 2434.46 368.68 2434.49 .03 2550.11 0 2680.75 161.9 2680.92 .02 2803.29 0 2803.29 368.67"/>
      <path class="cls-1" d="M1974.92,175.9c14.11,5.1,26.95,9.9,39.06,17.72,21.9,14.13,34.65,36.12,36.51,62.21,3.4,47.62-18.97,80.66-62.32,99.25-22.56,8.62-45.68,13.4-70.42,13.42l-213.21.22V.01s217.19.1,217.19.1c16.34,0,31.28,2.79,46.71,6.31,41.66,11.8,71.24,40.7,70.07,85.5.86,27.94-12.03,52.99-34.82,68.79-8.73,6.08-17.54,9.85-28.77,15.19ZM1909.03,137.43c11.41-9.74,11.15-27.2.03-36.64-7.34-4.75-15.36-6.35-24.2-7.39h-59.93s0,51.22,0,51.22l60.02.02c8.63-.87,16.47-2.29,24.07-7.21ZM1926.8,245.81c-.67-9.22-6.48-16.57-15.44-20.71-6.14-2.41-12.66-3.69-19.54-4.29l-66.88.02v54.49s64.94-.09,64.94-.09c19.51-.03,38.35-9.79,36.92-29.42Z"/>
      <path class="cls-1" d="M1474.85,243.39l85.78,125.28-141.08.06-69.4-105.22-26.29-.2v105.41s-123.39,0-123.39,0V.04s191.48.11,191.48.11c20.35.01,39.06,3.22,58.48,7.56,73.01,19.65,106.52,74.67,94.54,149.19-5.08,26.02-18.06,48.58-38.14,65.68-9.65,8.35-20.01,14.75-31.98,20.81ZM1424.42,137.36c-.53-14.49-8.79-25.4-21.97-30-8-2.88-16.56-4-25.35-4l-53.24.04v71.98s52.24-.01,52.24-.01c25.72,0,49.33-10.33,48.32-38.01Z"/>
      <polygon class="cls-1" points="3118.9 227.71 2939 227.68 2939.01 267.34 3134.9 267.33 3134.88 368.71 2817.61 368.68 2817.61 .05 3132.17 0 3132.15 101.19 2939.07 101.17 2939.01 138.47 3118.91 138.46 3118.9 227.71"/>
      <path class="cls-1" d="M2419.96.02l-.03,207.72c-1.96,76.15-31.46,135.37-106.9,158.22-25.94,7.86-52.03,10.17-79.25,10.07-29.65-.11-58.32-4.03-85.77-14.39-39.98-15.08-69.47-45.96-82.5-86.6-6.83-21.32-9.8-42.49-10.34-65.37l-.03-209.66h125.67s0,206.59,0,206.59c1.05,26.14,11.2,49.78,36.85,57.41,13.17,3.92,27.02,3.78,40.3.03,24.58-6.93,35.18-29.1,36.36-54.4V0s125.64.01,125.64.01Z"/>
      <g>
        <path class="cls-1" d="M612.16,321.8l-128.59-.12-19.13,49.45-132.05.03L487.73.06l122.59-.06,155.32,371.06-134.17.13-19.31-49.38ZM581.38,234.01l-33.46-88.26-33.4,88.38,66.86-.11Z"/>
        <polygon class="cls-1" points="317.73 265.84 317.82 371.16 .01 371.12 0 2.48 123.42 2.52 123.4 265.83 317.73 265.84"/>
      </g>
      <polygon class="cls-1" points="1089.67 368.67 966 368.72 966.04 104.42 868.85 104.36 868.87 .02 1186.92 0 1186.9 104.35 1089.67 104.44 1089.67 368.67"/>
      <polygon class="cls-1" points="1690.24 368.65 1563.77 368.73 1563.81 .02 1690.23 .02 1690.24 368.65"/>
    </g>
  </g>
</svg>