<?xml version="1.0" encoding="UTF-8"?>
<svg id="Calque_2" data-name="Calque 2" xmlns="http://www.w3.org/2000/svg" viewBox="0 0 184.27 38.72">
  <defs>
    <style>
      .cls-1 {
        fill: #fff;
        fill-rule: evenodd;
      }
    </style>
  </defs>
  <g id="svg3336">
    <g id="g3344">
      <g id="g3346">
        <path id="path3352" class="cls-1" d="M184.27,32.37c-.24.05-.72.14-.73.14-.67.13-1.33.15-1.98.15-2.26,0-3.06-1.16-3.06-4.42v-10.31h5.73v-5.94h-5.73V3.61l-8.46,2.84v5.54h-4.97v2.96h4.26c.29,0,.57.29.58.57v13.33c0,5.9,1.47,9.84,9.27,9.84,1.64,0,2.9-.18,4.17-.36,0,0,.55-.07.92-.12v-5.84"/>
        <path id="path3354" class="cls-1" d="M103.86,11.39c-8.3,0-13.89,5.5-13.89,13.67s5.59,13.62,13.89,13.62,13.9-5.47,13.9-13.62-5.59-13.67-13.9-13.67ZM103.86,32.2c-4.75,0-5.22-5.52-5.22-7.14s.47-7.19,5.22-7.19,5.22,5.55,5.22,7.19-.47,7.14-5.22,7.14"/>
        <path id="path3356" class="cls-1" d="M126.32,9.79c2.7,0,4.9-2.2,4.9-4.9s-2.2-4.9-4.9-4.9-4.9,2.2-4.9,4.9,2.2,4.9,4.9,4.9"/>
        <path id="path3358" class="cls-1" d="M131.46,35.15c-.29,0-.58-.29-.58-.58V11.99h-11.84v2.96h2.57c.29,0,.57.29.58.57v19.04h0c0,.29-.29.58-.58.58h-2.57v2.96h14.99v-2.96h-2.57"/>
        <path id="path3360" class="cls-1" d="M163.64,34.57v-12.7c0-5.06-2.38-10.48-9.28-10.48-3.62,0-6.35,1.45-8.1,4.31l-.24.39v-3.55h0c0-.29-.28-.56-.56-.57h-10.65s0,2.96,0,2.96h2.57c.28,0,.56.27.58.55v22.6h8.78v-12.06c0-5.29,1.6-7.35,4.7-7.35.57,0,1.64.14,2.45,1.17.74.94,1.09,2.59,1.09,5.02v13.22h11.8s0-2.96,0-2.96h-2.59c-.28-.01-.56-.29-.56-.58"/>
        <path id="path3362" class="cls-1" d="M38.91,11.42c-8.19,0-13.01,6.05-13.01,13.62,0,8.18,5.66,13.67,14.11,13.67,3.42,0,6.59-.84,9.05-1.9,0,0,.08-.03.15-.06v-6.38c-.16.09-.36.2-.36.2-3,1.6-6.24,1.94-7.48,1.94-3.8,0-6.28-1.81-6.79-4.44l-.03-.15h16.65v-1.87c0-9.28-4.76-14.61-12.29-14.61ZM34.42,22.35l.02-.14c.19-1.76,1.22-4.9,4.52-4.9s4.08,2.53,4.28,4.31h0c.07.45-.24.74-.58.74h-8.24"/>
        <path id="path3364" class="cls-1" d="M74.58,3.98h-13.29v2.96h2.57c.29,0,.58.29.58.58v27.06c0,.29-.29.57-.58.57h-2.57v2.96h15.11v-2.96h-2.57c-.29,0-.58-.29-.58-.58h0v-8.22h2.94c7.93,0,12.77-4.72,12.77-11.11,0-6.73-4.56-11.26-14.39-11.26h0ZM75.11,19.81h-1.87v-9.34h1.87c3.18,0,5.03,1.73,5.03,4.63s-1.81,4.71-5.03,4.71"/>
        <path id="path3366" class="cls-1" d="M22.16,30.67h0c0,.29-.28.57-.57.57h0s-9.6,0-9.6,0V8.36c0-.29.29-.57.57-.57h2.55v-2.93H0s0,2.93,0,2.93h2.55c.28,0,.56.27.57.56v26.28c0,.28-.29.56-.57.56h0s-2.55,0-2.55,0v2.93h25.08v-9.98h-2.93v2.55"/>
      </g>
    </g>
  </g>
</svg>