<?xml version="1.0" encoding="UTF-8"?>
<svg id="Calque_2" data-name="Calque 2" xmlns="http://www.w3.org/2000/svg" viewBox="0 0 9608.58 1333.02">
  <defs>
    <style>
      .cls-1 {
        fill: #0d6fef;
      }

      .cls-2 {
        fill: #163860;
      }
    </style>
  </defs>
  <g id="Calque_1-2" data-name="Calque 1">
    <g>
      <g>
        <path class="cls-2" d="M8996.36,298.57c-455.4,0-618.25,280.48-618.25,506.67,0,298.57,226.19,527.78,615.24,527.78,343.81,0,615.24-174.92,615.24-512.7s-259.37-521.75-612.22-521.75ZM9005.4,1121.91c-105.56,0-214.13-54.29-214.13-334.76,0-171.9,75.4-277.46,202.06-277.46s208.1,72.38,208.1,298.57c0,244.29-90.48,313.65-196.03,313.65ZM3836.19,1103.81v202.06h645.4v-202.06h-102.54c-14.99,0-27.14-12.15-27.14-27.14v-524.76c0-15.08,12.06-27.14,27.14-27.14h102.54v-202.06h-645.4v202.06h102.54c15.08,0,27.14,12.06,27.14,27.14v524.76c0,15.08-12.06,27.14-27.14,27.14h-102.54ZM5793.5,859.52v-84.44h-579.05v174.92h211.11s3.02,190-223.17,190c-123.65,0-253.33-72.38-253.33-322.7s180.95-316.67,292.54-316.67c123.65,0,211.11,48.25,262.38,123.65h256.35v-298.57h-253.33v81.43s-135.71-105.56-373.97-105.56c-343.81,0-591.11,190-591.11,515.71,0,301.59,223.17,509.68,636.35,509.68,615.24,0,615.24-467.46,615.24-467.46h0Z"/>
        <path class="cls-2" d="M6921.43,1076.67l-310.64-753.97h-422.22s-232.22,585.08-307.62,753.97c-6.03,18.1-24.13,27.14-42.22,27.14h-78.41v202.06h452.38v-202.06h-60.32c-18.1,0-33.17-18.1-24.13-36.19l27.14-66.35h367.94l27.14,66.35c6.03,18.1,6.03,36.19-15.08,36.19h-72.38v202.06h573.02v-202.06h-72.38c-18.1,0-36.19-9.05-42.22-27.14ZM6224.77,838.41l117.62-286.51,117.62,286.51h-235.24,0ZM8209.21,1085.72l-129.68-186.98s196.03-42.22,196.03-247.3-165.87-325.71-458.41-325.71h-735.87v202.06h102.54c15.08,0,27.14,12.06,27.14,27.14v524.76c0,15.08-12.06,27.14-27.14,27.14h-66.35v202.06h609.21v-202.06h-102.54c-14.99,0-27.14-12.15-27.14-27.14v-132.7h120.64l247.3,361.91h392.06v-202.06h-108.57c-15.28-1.78-29.31-9.33-39.21-21.11h0ZM7744.77,772.06h-150.79v-244.29h150.79s180.95-6.03,180.95,120.64c0-3.02,12.06,123.65-180.95,123.65ZM0,1305.87v-202.06h102.54c15.08,0,27.14-12.06,27.14-27.14v-524.76c0-15.08-12.06-27.14-27.14-27.14H0v-202.06h645.4v202.06h-102.54c-15.08,0-27.14,12.06-27.14,27.14v551.91h253.33c15.08,0,27.14-12.06,27.14-27.14v-177.94h253.33v407.14s-1049.52,0-1049.52,0ZM2189.53,591.11v-265.4h-1046.51v202.06h102.54c15.08,0,27.14,12.06,27.14,27.14v524.76c0,15.08-12.06,27.14-27.14,27.14h-102.54v202.06h1046.51v-265.4h-214.13v36.19c0,15.08-12.06,27.14-27.14,27.14h-289.52v-199.05h316.67v-183.97h-316.67v-193.02h289.52c15.08,0,27.14,12.06,27.14,27.14v39.21h214.13s0-6.03,0-6.03ZM2744.45,322.7l30.16,24.13c250.32,186.98,253.33,316.67,253.33,316.67v274.44c-78.41-24.13-141.75-51.27-196.03-78.41v217.14c0,15.08-12.06,27.14-27.14,27.14h-102.54v202.06h639.37v-202.06h-96.51c-14.99,0-27.14-12.15-27.14-27.14h0v-171.91h280.48v-183.97h-277.46v-193.02h253.33c15.08,0,27.14,12.06,27.14,27.14v39.21h253.33v-265.4h-1010.32s0-6.03,0-6.03Z"/>
      </g>
      <path class="cls-1" d="M3217.94,986.19c30.16,6.03,117.62,51.27,153.81,81.43,74.33,64.21,143.88,133.76,208.1,208.1l48.25,30.16s-129.68-156.83-214.13-238.25l-156.83-156.83-6.03-6.03h-33.17v81.43h0ZM2777.62,346.83l-30.16-24.13C2518.26,153.81,2442.86,60.32,2424.76,0c0,0-69.37,250.32,114.6,446.35,0,0-45.24-9.05-87.46-27.14,0,0,75.4,190,286.51,292.54,0,0-54.29,3.02-102.54-3.02,0,0,48.25,75.4,196.03,150.79,62.79,32.11,128.41,58.36,196.03,78.41v-274.44c3.02,0,0-129.68-250.32-316.67Z"/>
    </g>
  </g>
</svg>