<svg width="16" height="16" viewBox="0 0 16 16" fill="none" xmlns="http://www.w3.org/2000/svg">
<rect width="16" height="16" rx="3" fill="url(#paint0_linear_152_28)"/>
<rect width="16" height="16" rx="3" fill="url(#paint1_linear_152_28)"/>
<path d="M5.51002 11.8174L5.11217 11.9158L3.66542 12.3563C3.92713 11.587 4.18479 10.9075 4.30508 10.1447L4.44406 9.26205C4.47779 9.04829 4.45747 8.80486 4.47048 8.58622C4.48348 8.36759 4.48429 8.15139 4.4717 7.92381C4.45829 7.67591 4.4782 7.40891 4.44203 7.16589L4.30589 6.2442C4.15227 5.42776 3.91454 4.66212 3.61909 3.89364L3.60893 3.79692C3.6069 3.77782 3.67598 3.77782 3.70646 3.7766C4.81753 4.21103 5.96193 4.44186 7.15631 4.53086C8.27226 4.62473 9.92627 4.39594 10.9796 4.0692L12.3516 3.64371C12.0631 4.43129 11.8424 5.12866 11.6965 5.89673C11.6384 6.20193 11.6164 6.48478 11.577 6.79323L11.5092 7.31991C11.5079 7.75841 11.4896 8.18471 11.536 8.61223L11.5986 9.18768L11.714 9.92081C11.7733 10.2975 11.896 10.6548 11.9899 11.0242L12.3837 12.1299L12.3914 12.2336C12.3935 12.26 12.3073 12.2458 12.2683 12.2437C11.0922 11.7744 9.8649 11.5602 8.5994 11.5013C8.09223 11.4488 7.61838 11.513 7.11405 11.5602C6.73326 11.596 6.35816 11.6264 5.99119 11.7093L5.50962 11.8178L5.51002 11.8174Z" fill="white"/>
<defs>
<linearGradient id="paint0_linear_152_28" x1="8" y1="0" x2="8" y2="16" gradientUnits="userSpaceOnUse">
<stop stop-color="#EC4DCB"/>
<stop offset="1" stop-color="#FE3AA4"/>
</linearGradient>
<linearGradient id="paint1_linear_152_28" x1="0.533175" y1="-3.20583e-07" x2="15.4668" y2="16" gradientUnits="userSpaceOnUse">
<stop stop-color="#5F14FB"/>
<stop offset="0.47" stop-color="#EC4DCB"/>
<stop offset="1" stop-color="#FFC0F1"/>
</linearGradient>
</defs>
</svg>
