<svg width="330" height="180" viewBox="0 0 330 180" fill="none" xmlns="http://www.w3.org/2000/svg">
<g clip-path="url(#clip0_1_562)">
<mask id="mask0_1_562" style="mask-type:alpha" maskUnits="userSpaceOnUse" x="0" y="0" width="330" height="204">
<rect width="330" height="204" fill="url(#paint0_linear_1_562)"/>
</mask>
<g mask="url(#mask0_1_562)">
<g clip-path="url(#clip1_1_562)">
<g clip-path="url(#clip2_1_562)">
<rect y="27.5" width="106.66" height="149" rx="8" fill="white" fill-opacity="0.12"/>
<g clip-path="url(#clip3_1_562)">
<rect x="10" y="35.5" width="25" height="25" rx="6" fill="white" fill-opacity="0.12"/>
<g opacity="0.9">
<g clip-path="url(#clip4_1_562)">
<g clip-path="url(#clip5_1_562)">
<path d="M18.4916 45.3256H15.4803C15.4162 45.3256 15.3546 45.3511 15.3093 45.3965C15.2639 45.4419 15.2384 45.5034 15.2384 45.5676V55.2415C15.2384 55.3057 15.2639 55.3672 15.3093 55.4126C15.3546 55.4579 15.4162 55.4834 15.4803 55.4834H18.4916C18.5558 55.4834 18.6173 55.4579 18.6627 55.4126C18.7081 55.3672 18.7335 55.3057 18.7335 55.2415V45.5676C18.7335 45.5034 18.7081 45.4419 18.6627 45.3965C18.6173 45.3511 18.5558 45.3256 18.4916 45.3256ZM16.9871 40.5165C15.8914 40.5165 15 41.4069 15 42.5014C15 43.5963 15.8914 44.4871 16.9871 44.4871C18.0819 44.4871 18.9725 43.5963 18.9725 42.5014C18.9726 41.4069 18.0819 40.5165 16.9871 40.5165ZM26.151 45.0852C24.9416 45.0852 24.0475 45.6051 23.5052 46.1959V45.5676C23.5052 45.5034 23.4798 45.4419 23.4344 45.3965C23.389 45.3511 23.3275 45.3256 23.2633 45.3256H20.3795C20.3153 45.3256 20.2538 45.3511 20.2084 45.3965C20.163 45.4419 20.1375 45.5034 20.1375 45.5676V55.2415C20.1375 55.3057 20.163 55.3672 20.2084 55.4126C20.2538 55.4579 20.3153 55.4834 20.3795 55.4834H23.3842C23.4483 55.4834 23.5099 55.4579 23.5553 55.4126C23.6006 55.3672 23.6261 55.3057 23.6261 55.2415V50.4551C23.6261 48.8423 24.0642 48.2139 25.1885 48.2139C26.413 48.2139 26.5103 49.2212 26.5103 50.5381V55.2415C26.5103 55.3057 26.5358 55.3672 26.5812 55.4126C26.6266 55.458 26.6881 55.4835 26.7523 55.4835H29.7581C29.8222 55.4835 29.8838 55.458 29.9291 55.4126C29.9745 55.3672 30 55.3057 30 55.2415V49.9352C30 47.5369 29.5427 45.0852 26.151 45.0852Z" fill="white" stroke="white" stroke-width="0.0483871"/>
</g>
</g>
</g>
<g clip-path="url(#clip6_1_562)">
<rect width="51.66" height="2" transform="translate(45 38)" fill="white" fill-opacity="0.2"/>
<rect width="51.66" height="2" transform="translate(45 47)" fill="white" fill-opacity="0.2"/>
<rect width="51.66" height="2" transform="translate(45 56)" fill="white" fill-opacity="0.2"/>
</g>
</g>
<g clip-path="url(#clip7_1_562)">
<g clip-path="url(#clip8_1_562)">
<rect x="8" y="70.5" width="28.88" height="2" rx="1" fill="white" fill-opacity="0.2"/>
<rect x="38.88" y="70.5" width="28.89" height="2" rx="1" fill="white" fill-opacity="0.2"/>
<rect x="69.77" y="70.5" width="28.89" height="2" rx="1" fill="white" fill-opacity="0.2"/>
</g>
<g clip-path="url(#clip9_1_562)">
<rect x="8" y="82.5" width="44.33" height="2" rx="1" fill="white" fill-opacity="0.2"/>
<rect x="54.33" y="82.5" width="44.34" height="2" rx="1" fill="white" fill-opacity="0.2"/>
</g>
<g clip-path="url(#clip10_1_562)">
<rect x="8" y="94.5" width="28.88" height="2" rx="1" fill="white" fill-opacity="0.2"/>
<rect x="38.88" y="94.5" width="28.89" height="2" rx="1" fill="white" fill-opacity="0.2"/>
<rect x="69.77" y="94.5" width="28.89" height="2" rx="1" fill="white" fill-opacity="0.2"/>
</g>
<g clip-path="url(#clip11_1_562)">
<rect x="8" y="106.5" width="44.33" height="2" rx="1" fill="white" fill-opacity="0.2"/>
<rect x="54.33" y="106.5" width="44.34" height="2" rx="1" fill="white" fill-opacity="0.2"/>
</g>
<g clip-path="url(#clip12_1_562)">
<rect x="8" y="118.5" width="28.88" height="2" rx="1" fill="white" fill-opacity="0.2"/>
<rect x="38.88" y="118.5" width="28.89" height="2" rx="1" fill="white" fill-opacity="0.2"/>
<rect x="69.77" y="118.5" width="28.89" height="2" rx="1" fill="white" fill-opacity="0.2"/>
</g>
<g clip-path="url(#clip13_1_562)">
<rect x="8" y="130.5" width="44.33" height="2" rx="1" fill="white" fill-opacity="0.2"/>
<rect x="54.33" y="130.5" width="44.34" height="2" rx="1" fill="white" fill-opacity="0.2"/>
</g>
<g clip-path="url(#clip14_1_562)">
<rect x="8" y="142.5" width="28.88" height="2" rx="1" fill="white" fill-opacity="0.2"/>
<rect x="38.88" y="142.5" width="28.89" height="2" rx="1" fill="white" fill-opacity="0.2"/>
<rect x="69.77" y="142.5" width="28.89" height="2" rx="1" fill="white" fill-opacity="0.2"/>
</g>
<g clip-path="url(#clip15_1_562)">
<rect x="8" y="154.5" width="44.33" height="2" rx="1" fill="white" fill-opacity="0.2"/>
<rect x="54.33" y="154.5" width="44.34" height="2" rx="1" fill="white" fill-opacity="0.2"/>
</g>
<g clip-path="url(#clip16_1_562)">
<rect x="8" y="166.5" width="28.88" height="2" rx="1" fill="white" fill-opacity="0.2"/>
<rect x="38.88" y="166.5" width="28.89" height="2" rx="1" fill="white" fill-opacity="0.2"/>
<rect x="69.77" y="166.5" width="28.89" height="2" rx="1" fill="white" fill-opacity="0.2"/>
</g>
</g>
</g>
<g clip-path="url(#clip17_1_562)">
<rect x="111.66" y="27.5" width="106.67" height="149" rx="8" fill="white" fill-opacity="0.12"/>
<g clip-path="url(#clip18_1_562)">
<rect x="121.66" y="35.5" width="25" height="25" rx="6" fill="white" fill-opacity="0.12"/>
<g opacity="0.9">
<g clip-path="url(#clip19_1_562)">
<g clip-path="url(#clip20_1_562)">
<path d="M135.469 46.9475L140.589 41.125H139.376L134.929 46.18L131.379 41.125H127.285L132.654 48.7694L127.285 54.875H128.497L133.191 49.5356L136.941 54.875H141.035L135.469 46.9475ZM133.808 48.8363L133.263 48.075L128.935 42.02H130.797L134.291 46.9081L134.834 47.67L139.375 54.0238H137.511L133.807 48.8363H133.808Z" fill="white"/>
</g>
</g>
</g>
<g clip-path="url(#clip21_1_562)">
<rect width="51.67" height="2" transform="translate(156.66 38)" fill="white" fill-opacity="0.2"/>
<rect width="51.67" height="2" transform="translate(156.66 47)" fill="white" fill-opacity="0.2"/>
<rect width="51.67" height="2" transform="translate(156.66 56)" fill="white" fill-opacity="0.2"/>
</g>
</g>
<g clip-path="url(#clip22_1_562)">
<g clip-path="url(#clip23_1_562)">
<rect x="119.66" y="70.5" width="28.89" height="2" rx="1" fill="white" fill-opacity="0.2"/>
<rect x="150.55" y="70.5" width="28.89" height="2" rx="1" fill="white" fill-opacity="0.2"/>
<rect x="181.44" y="70.5" width="28.89" height="2" rx="1" fill="white" fill-opacity="0.2"/>
</g>
<g clip-path="url(#clip24_1_562)">
<rect x="119.66" y="82.5" width="44.335" height="2" rx="1" fill="white" fill-opacity="0.2"/>
<rect x="165.995" y="82.5" width="44.335" height="2" rx="1" fill="white" fill-opacity="0.2"/>
</g>
<g clip-path="url(#clip25_1_562)">
<rect x="119.66" y="94.5" width="28.89" height="2" rx="1" fill="white" fill-opacity="0.2"/>
<rect x="150.55" y="94.5" width="28.89" height="2" rx="1" fill="white" fill-opacity="0.2"/>
<rect x="181.44" y="94.5" width="28.89" height="2" rx="1" fill="white" fill-opacity="0.2"/>
</g>
<g clip-path="url(#clip26_1_562)">
<rect x="119.66" y="106.5" width="44.335" height="2" rx="1" fill="white" fill-opacity="0.2"/>
<rect x="165.995" y="106.5" width="44.335" height="2" rx="1" fill="white" fill-opacity="0.2"/>
</g>
<g clip-path="url(#clip27_1_562)">
<rect x="119.66" y="118.5" width="28.89" height="2" rx="1" fill="white" fill-opacity="0.2"/>
<rect x="150.55" y="118.5" width="28.89" height="2" rx="1" fill="white" fill-opacity="0.2"/>
<rect x="181.44" y="118.5" width="28.89" height="2" rx="1" fill="white" fill-opacity="0.2"/>
</g>
<g clip-path="url(#clip28_1_562)">
<rect x="119.66" y="130.5" width="44.335" height="2" rx="1" fill="white" fill-opacity="0.2"/>
<rect x="165.995" y="130.5" width="44.335" height="2" rx="1" fill="white" fill-opacity="0.2"/>
</g>
<g clip-path="url(#clip29_1_562)">
<rect x="119.66" y="142.5" width="28.89" height="2" rx="1" fill="white" fill-opacity="0.2"/>
<rect x="150.55" y="142.5" width="28.89" height="2" rx="1" fill="white" fill-opacity="0.2"/>
<rect x="181.44" y="142.5" width="28.89" height="2" rx="1" fill="white" fill-opacity="0.2"/>
</g>
<g clip-path="url(#clip30_1_562)">
<rect x="119.66" y="154.5" width="44.335" height="2" rx="1" fill="white" fill-opacity="0.2"/>
<rect x="165.995" y="154.5" width="44.335" height="2" rx="1" fill="white" fill-opacity="0.2"/>
</g>
<g clip-path="url(#clip31_1_562)">
<rect x="119.66" y="166.5" width="28.89" height="2" rx="1" fill="white" fill-opacity="0.2"/>
<rect x="150.55" y="166.5" width="28.89" height="2" rx="1" fill="white" fill-opacity="0.2"/>
<rect x="181.44" y="166.5" width="28.89" height="2" rx="1" fill="white" fill-opacity="0.2"/>
</g>
</g>
</g>
<g clip-path="url(#clip32_1_562)">
<rect x="223.33" y="27.5" width="106.66" height="149" rx="8" fill="white" fill-opacity="0.12"/>
<g clip-path="url(#clip33_1_562)">
<rect x="233.33" y="35.5" width="25" height="25" rx="6" fill="white" fill-opacity="0.12"/>
<g clip-path="url(#clip34_1_562)">
<path d="M247.906 46.9889C247.942 47.3409 247.962 47.6809 247.962 47.9999C247.962 48.5959 247.89 49.2689 247.78 49.9499C247.099 50.0599 246.426 50.1329 245.83 50.1329C245.236 50.1329 244.563 50.0599 243.88 49.9499C243.769 49.2689 243.697 48.5959 243.697 47.9999C243.697 47.6809 243.717 47.3409 243.753 46.9889C244.472 47.1039 245.187 47.1799 245.83 47.1799C246.473 47.1799 247.188 47.1039 247.906 46.9889ZM248.877 46.8119C248.921 47.2229 248.947 47.6239 248.947 47.9999C248.947 48.5479 248.892 49.1489 248.805 49.7589C249.815 49.5439 250.815 49.2849 251.803 48.9819C252.001 48.9219 252.079 48.8969 252.183 48.8549C252.238 48.8329 252.293 48.8089 252.346 48.7829C252.457 47.8439 252.366 46.8909 252.078 45.9899L252.025 46.0059C250.989 46.3219 249.938 46.5909 248.877 46.8119ZM251.706 45.0749C250.729 45.3709 249.741 45.6239 248.742 45.8349C248.466 44.1549 247.982 42.4809 247.748 41.7219C249.471 42.2509 250.901 43.4629 251.706 45.0749ZM247.775 46.0129C247.095 46.1229 246.425 46.1949 245.83 46.1949C245.235 46.1949 244.564 46.1229 243.885 46.0129C244.145 44.4249 244.61 42.8019 244.847 42.0269C244.908 41.8279 244.932 41.7499 244.974 41.6459C244.995 41.5939 245.016 41.5459 245.046 41.4829C245.578 41.4199 246.116 41.4219 246.648 41.4879L246.664 41.5469C246.68 41.6019 246.703 41.6779 246.744 41.8069L246.748 41.8199C246.95 42.4639 247.487 44.2569 247.775 46.0129ZM242.917 45.8349C243.192 44.1629 243.673 42.4969 243.906 41.7379L243.911 41.7219C242.189 42.2509 240.758 43.4619 239.953 45.0739C240.598 45.2699 241.718 45.5869 242.917 45.8349ZM239.581 45.9889C239.288 46.8989 239.198 47.8609 239.317 48.8099L239.42 48.8449H239.422C240.55 49.2079 241.696 49.5129 242.855 49.7589C242.767 49.1489 242.712 48.5479 242.712 47.9999C242.712 47.6239 242.738 47.2229 242.783 46.8119C241.721 46.5909 240.67 46.3219 239.633 46.0059L239.629 46.0049L239.581 45.9889ZM245.83 51.1169C246.378 51.1169 246.979 51.0619 247.589 50.9749C247.374 51.9849 247.115 52.9849 246.812 53.9729C246.776 54.1009 246.733 54.2279 246.685 54.3529C246.663 54.4079 246.639 54.4629 246.613 54.5159C246.093 54.5779 245.567 54.5779 245.046 54.5159C245.02 54.4629 244.996 54.4079 244.974 54.3529C244.926 54.2279 244.884 54.1009 244.847 53.9719C244.659 53.3599 244.328 52.2139 244.07 50.9749C244.678 51.0619 245.28 51.1169 245.83 51.1169ZM241.478 50.4529C240.832 50.2919 240.189 50.1139 239.552 49.9179C240.192 52.0039 241.825 53.6369 243.911 54.2769L243.906 54.2609C243.703 53.5979 243.31 52.2449 243.031 50.7979C242.511 50.6969 241.993 50.5819 241.478 50.4529ZM252.091 49.9229C251.428 50.1269 250.074 50.5189 248.628 50.7979C248.349 52.2439 247.957 53.5979 247.753 54.2609L247.748 54.2769C249.834 53.6369 251.467 52.0039 252.107 49.9179L252.091 49.9229Z" fill="white"/>
<path d="M239.336 48.827L239.383 48.834L239.4 48.838L239.407 48.84L239.411 48.842L239.415 48.843H239.418C239.416 48.843 239.38 48.834 239.337 48.827H239.336Z" fill="white"/>
</g>
<g clip-path="url(#clip35_1_562)">
<rect width="51.66" height="2" transform="translate(268.33 38)" fill="white" fill-opacity="0.2"/>
<rect width="51.66" height="2" transform="translate(268.33 47)" fill="white" fill-opacity="0.2"/>
<rect width="51.66" height="2" transform="translate(268.33 56)" fill="white" fill-opacity="0.2"/>
</g>
</g>
<g clip-path="url(#clip36_1_562)">
<g clip-path="url(#clip37_1_562)">
<rect x="231.33" y="70.5" width="28.88" height="2" rx="1" fill="white" fill-opacity="0.2"/>
<rect x="262.21" y="70.5" width="28.89" height="2" rx="1" fill="white" fill-opacity="0.2"/>
<rect x="293.1" y="70.5" width="28.89" height="2" rx="1" fill="white" fill-opacity="0.2"/>
</g>
<g clip-path="url(#clip38_1_562)">
<rect x="231.33" y="82.5" width="44.33" height="2" rx="1" fill="white" fill-opacity="0.2"/>
<rect x="277.65" y="82.5" width="44.34" height="2" rx="1" fill="white" fill-opacity="0.2"/>
</g>
<g clip-path="url(#clip39_1_562)">
<rect x="231.33" y="94.5" width="28.88" height="2" rx="1" fill="white" fill-opacity="0.2"/>
<rect x="262.21" y="94.5" width="28.89" height="2" rx="1" fill="white" fill-opacity="0.2"/>
<rect x="293.1" y="94.5" width="28.89" height="2" rx="1" fill="white" fill-opacity="0.2"/>
</g>
<g clip-path="url(#clip40_1_562)">
<rect x="231.33" y="106.5" width="44.33" height="2" rx="1" fill="white" fill-opacity="0.2"/>
<rect x="277.65" y="106.5" width="44.34" height="2" rx="1" fill="white" fill-opacity="0.2"/>
</g>
<g clip-path="url(#clip41_1_562)">
<rect x="231.33" y="118.5" width="28.88" height="2" rx="1" fill="white" fill-opacity="0.2"/>
<rect x="262.21" y="118.5" width="28.89" height="2" rx="1" fill="white" fill-opacity="0.2"/>
<rect x="293.1" y="118.5" width="28.89" height="2" rx="1" fill="white" fill-opacity="0.2"/>
</g>
<g clip-path="url(#clip42_1_562)">
<rect x="231.33" y="130.5" width="44.33" height="2" rx="1" fill="white" fill-opacity="0.2"/>
<rect x="277.65" y="130.5" width="44.34" height="2" rx="1" fill="white" fill-opacity="0.2"/>
</g>
<g clip-path="url(#clip43_1_562)">
<rect x="231.33" y="142.5" width="28.88" height="2" rx="1" fill="white" fill-opacity="0.2"/>
<rect x="262.21" y="142.5" width="28.89" height="2" rx="1" fill="white" fill-opacity="0.2"/>
<rect x="293.1" y="142.5" width="28.89" height="2" rx="1" fill="white" fill-opacity="0.2"/>
</g>
<g clip-path="url(#clip44_1_562)">
<rect x="231.33" y="154.5" width="44.33" height="2" rx="1" fill="white" fill-opacity="0.2"/>
<rect x="277.65" y="154.5" width="44.34" height="2" rx="1" fill="white" fill-opacity="0.2"/>
</g>
<g clip-path="url(#clip45_1_562)">
<rect x="231.33" y="166.5" width="28.88" height="2" rx="1" fill="white" fill-opacity="0.2"/>
<rect x="262.21" y="166.5" width="28.89" height="2" rx="1" fill="white" fill-opacity="0.2"/>
<rect x="293.1" y="166.5" width="28.89" height="2" rx="1" fill="white" fill-opacity="0.2"/>
</g>
</g>
</g>
</g>
</g>
</g>
<defs>
<linearGradient id="paint0_linear_1_562" x1="165" y1="204" x2="165" y2="0" gradientUnits="userSpaceOnUse">
<stop stop-opacity="0"/>
<stop offset="0.274775" stop-opacity="0.435"/>
<stop offset="1"/>
</linearGradient>
<clipPath id="clip0_1_562">
<rect width="330" height="180" rx="12" fill="white"/>
</clipPath>
<clipPath id="clip1_1_562">
<rect width="329.99" height="149" fill="white" transform="translate(0 27.5)"/>
</clipPath>
<clipPath id="clip2_1_562">
<rect y="27.5" width="106.66" height="149" rx="8" fill="white"/>
</clipPath>
<clipPath id="clip3_1_562">
<rect width="106.66" height="25" fill="white" transform="translate(0 35.5)"/>
</clipPath>
<clipPath id="clip4_1_562">
<rect width="15" height="15" fill="white" transform="translate(15 40.5)"/>
</clipPath>
<clipPath id="clip5_1_562">
<rect width="15" height="15" fill="white" transform="translate(15 40.5)"/>
</clipPath>
<clipPath id="clip6_1_562">
<rect width="51.66" height="20" fill="white" transform="translate(45 38)"/>
</clipPath>
<clipPath id="clip7_1_562">
<rect width="106.66" height="98" fill="white" transform="translate(0 70.5)"/>
</clipPath>
<clipPath id="clip8_1_562">
<rect width="90.66" height="2" fill="white" transform="translate(8 70.5)"/>
</clipPath>
<clipPath id="clip9_1_562">
<rect width="90.66" height="2" fill="white" transform="translate(8 82.5)"/>
</clipPath>
<clipPath id="clip10_1_562">
<rect width="90.66" height="2" fill="white" transform="translate(8 94.5)"/>
</clipPath>
<clipPath id="clip11_1_562">
<rect width="90.66" height="2" fill="white" transform="translate(8 106.5)"/>
</clipPath>
<clipPath id="clip12_1_562">
<rect width="90.66" height="2" fill="white" transform="translate(8 118.5)"/>
</clipPath>
<clipPath id="clip13_1_562">
<rect width="90.66" height="2" fill="white" transform="translate(8 130.5)"/>
</clipPath>
<clipPath id="clip14_1_562">
<rect width="90.66" height="2" fill="white" transform="translate(8 142.5)"/>
</clipPath>
<clipPath id="clip15_1_562">
<rect width="90.66" height="2" fill="white" transform="translate(8 154.5)"/>
</clipPath>
<clipPath id="clip16_1_562">
<rect width="90.66" height="2" fill="white" transform="translate(8 166.5)"/>
</clipPath>
<clipPath id="clip17_1_562">
<rect x="111.66" y="27.5" width="106.67" height="149" rx="8" fill="white"/>
</clipPath>
<clipPath id="clip18_1_562">
<rect width="106.67" height="25" fill="white" transform="translate(111.66 35.5)"/>
</clipPath>
<clipPath id="clip19_1_562">
<rect width="15" height="15" fill="white" transform="translate(126.66 40.5)"/>
</clipPath>
<clipPath id="clip20_1_562">
<rect width="15" height="15" fill="white" transform="translate(126.66 40.5)"/>
</clipPath>
<clipPath id="clip21_1_562">
<rect width="51.67" height="20" fill="white" transform="translate(156.66 38)"/>
</clipPath>
<clipPath id="clip22_1_562">
<rect width="106.67" height="98" fill="white" transform="translate(111.66 70.5)"/>
</clipPath>
<clipPath id="clip23_1_562">
<rect width="90.67" height="2" fill="white" transform="translate(119.66 70.5)"/>
</clipPath>
<clipPath id="clip24_1_562">
<rect width="90.67" height="2" fill="white" transform="translate(119.66 82.5)"/>
</clipPath>
<clipPath id="clip25_1_562">
<rect width="90.67" height="2" fill="white" transform="translate(119.66 94.5)"/>
</clipPath>
<clipPath id="clip26_1_562">
<rect width="90.67" height="2" fill="white" transform="translate(119.66 106.5)"/>
</clipPath>
<clipPath id="clip27_1_562">
<rect width="90.67" height="2" fill="white" transform="translate(119.66 118.5)"/>
</clipPath>
<clipPath id="clip28_1_562">
<rect width="90.67" height="2" fill="white" transform="translate(119.66 130.5)"/>
</clipPath>
<clipPath id="clip29_1_562">
<rect width="90.67" height="2" fill="white" transform="translate(119.66 142.5)"/>
</clipPath>
<clipPath id="clip30_1_562">
<rect width="90.67" height="2" fill="white" transform="translate(119.66 154.5)"/>
</clipPath>
<clipPath id="clip31_1_562">
<rect width="90.67" height="2" fill="white" transform="translate(119.66 166.5)"/>
</clipPath>
<clipPath id="clip32_1_562">
<rect x="223.33" y="27.5" width="106.66" height="149" rx="8" fill="white"/>
</clipPath>
<clipPath id="clip33_1_562">
<rect width="106.66" height="25" fill="white" transform="translate(223.33 35.5)"/>
</clipPath>
<clipPath id="clip34_1_562">
<rect width="15" height="15" fill="white" transform="translate(238.33 40.5)"/>
</clipPath>
<clipPath id="clip35_1_562">
<rect width="51.66" height="20" fill="white" transform="translate(268.33 38)"/>
</clipPath>
<clipPath id="clip36_1_562">
<rect width="106.66" height="98" fill="white" transform="translate(223.33 70.5)"/>
</clipPath>
<clipPath id="clip37_1_562">
<rect width="90.66" height="2" fill="white" transform="translate(231.33 70.5)"/>
</clipPath>
<clipPath id="clip38_1_562">
<rect width="90.66" height="2" fill="white" transform="translate(231.33 82.5)"/>
</clipPath>
<clipPath id="clip39_1_562">
<rect width="90.66" height="2" fill="white" transform="translate(231.33 94.5)"/>
</clipPath>
<clipPath id="clip40_1_562">
<rect width="90.66" height="2" fill="white" transform="translate(231.33 106.5)"/>
</clipPath>
<clipPath id="clip41_1_562">
<rect width="90.66" height="2" fill="white" transform="translate(231.33 118.5)"/>
</clipPath>
<clipPath id="clip42_1_562">
<rect width="90.66" height="2" fill="white" transform="translate(231.33 130.5)"/>
</clipPath>
<clipPath id="clip43_1_562">
<rect width="90.66" height="2" fill="white" transform="translate(231.33 142.5)"/>
</clipPath>
<clipPath id="clip44_1_562">
<rect width="90.66" height="2" fill="white" transform="translate(231.33 154.5)"/>
</clipPath>
<clipPath id="clip45_1_562">
<rect width="90.66" height="2" fill="white" transform="translate(231.33 166.5)"/>
</clipPath>
</defs>
</svg>
