<svg width="320" height="180" viewBox="0 0 320 180" fill="none" xmlns="http://www.w3.org/2000/svg">
<g clip-path="url(#clip0_1_421)">
<mask id="mask0_1_421" style="mask-type:alpha" maskUnits="userSpaceOnUse" x="0" y="0" width="320" height="180">
<rect width="320" height="180" fill="url(#paint0_linear_1_421)"/>
</mask>
<g mask="url(#mask0_1_421)">
<rect width="320" height="180" rx="8" fill="white" fill-opacity="0.12"/>
<rect width="320" height="15" fill="white" fill-opacity="0.15"/>
<rect x="10" y="5" width="5" height="5" rx="2.5" fill="#FF3333" fill-opacity="0.5"/>
<rect x="20" y="5" width="5" height="5" rx="2.5" fill="#E6FF00" fill-opacity="0.5"/>
<rect x="30" y="5" width="5" height="5" rx="2.5" fill="#33FF4E" fill-opacity="0.5"/>
<rect x="3" y="20" width="154.5" height="150" rx="8" fill="white" fill-opacity="0.12"/>
<path d="M8 29C8 26.7909 9.79086 25 12 25H148.5C150.709 25 152.5 26.7909 152.5 29V42C152.5 44.2091 150.709 46 148.5 46H12C9.79086 46 8 44.2091 8 42V29Z" fill="white" fill-opacity="0.2"/>
<rect x="13" y="28" width="15" height="15" rx="4" fill="white" fill-opacity="0.2"/>
<g clip-path="url(#clip1_1_421)">
<path d="M25.326 35.023C25.326 37.672 23.403 40.153 20.776 40.879C20.597 40.927 20.402 40.927 20.224 40.879C17.597 40.153 15.674 37.672 15.674 35.023V32.645C15.674 32.201 16.01 31.697 16.427 31.53L19.444 30.295C20.121 30.018 20.885 30.018 21.562 30.295L24.579 31.53C24.99 31.697 25.332 32.201 25.332 32.645L25.326 35.023Z" stroke="white" stroke-width="0.81" stroke-linecap="round" stroke-linejoin="round"/>
</g>
<rect x="35" y="31.5" width="41.13" height="2" rx="1" fill="white" fill-opacity="0.8"/>
<g clip-path="url(#clip2_1_421)">
<rect x="35" y="37.5" width="36.1667" height="2" rx="1" fill="white" fill-opacity="0.2"/>
<rect x="73.1667" y="37.5" width="36.1667" height="2" rx="1" fill="white" fill-opacity="0.2"/>
<rect x="111.333" y="37.5" width="36.1667" height="2" rx="1" fill="white" fill-opacity="0.2"/>
</g>
<rect x="8" y="51" width="144.5" height="21" rx="4" fill="white" fill-opacity="0.1"/>
<rect x="13" y="54" width="15" height="15" rx="4" fill="white" fill-opacity="0.2"/>
<g clip-path="url(#clip3_1_421)">
<path d="M19.958 65.563H25.375M19.958 61.771H25.375M19.958 57.979H25.375M15.625 57.979L16.167 58.521L17.792 56.896M15.625 61.771L16.167 62.312L17.792 60.688M15.625 65.563L16.167 66.104L17.792 64.479" stroke="white" stroke-width="0.81" stroke-linecap="round" stroke-linejoin="round"/>
</g>
<rect x="35" y="57.5" width="41.13" height="2" rx="1" fill="white" fill-opacity="0.8"/>
<g clip-path="url(#clip4_1_421)">
<rect x="35" y="63.5" width="36.1667" height="2" rx="1" fill="white" fill-opacity="0.2"/>
<rect x="73.1667" y="63.5" width="36.1667" height="2" rx="1" fill="white" fill-opacity="0.2"/>
<rect x="111.333" y="63.5" width="36.1667" height="2" rx="1" fill="white" fill-opacity="0.2"/>
</g>
<rect x="8" y="77" width="144.5" height="21" rx="4" fill="white" fill-opacity="0.05"/>
<rect x="13" y="80" width="15" height="15" rx="4" fill="white" fill-opacity="0.2"/>
<g clip-path="url(#clip5_1_421)">
<path d="M17.436 90.564C15.744 88.872 15.744 86.128 17.436 84.436C19.128 82.744 21.872 82.744 23.564 84.436C25.256 86.128 25.256 88.872 23.564 90.564M20.5 87.5L22.667 86.417" stroke="white" stroke-width="1.08" stroke-linecap="round" stroke-linejoin="round"/>
</g>
<rect x="35" y="83.5" width="41.13" height="2" rx="1" fill="white" fill-opacity="0.8"/>
<g clip-path="url(#clip6_1_421)">
<rect x="35" y="89.5" width="36.1667" height="2" rx="1" fill="white" fill-opacity="0.2"/>
<rect x="73.1667" y="89.5" width="36.1667" height="2" rx="1" fill="white" fill-opacity="0.2"/>
<rect x="111.333" y="89.5" width="36.1667" height="2" rx="1" fill="white" fill-opacity="0.2"/>
</g>
<rect x="8" y="103" width="144.5" height="21" rx="4" fill="white" fill-opacity="0.05"/>
<rect x="13" y="106" width="15" height="15" rx="4" fill="white" fill-opacity="0.2"/>
<g clip-path="url(#clip7_1_421)">
<path d="M20.5 118.5C23.2614 118.5 25.5 116.261 25.5 113.5C25.5 110.739 23.2614 108.5 20.5 108.5C17.7386 108.5 15.5 110.739 15.5 113.5C15.5 116.261 17.7386 118.5 20.5 118.5Z" stroke="white" stroke-linecap="round" stroke-linejoin="round"/>
<path d="M25.5 113.5H23.5M17.5 113.5H15.5M20.5 110.5V108.5M20.5 118.5V116.5" stroke="white" stroke-linecap="round" stroke-linejoin="round"/>
</g>
<rect x="35" y="109.5" width="41.13" height="2" rx="1" fill="white" fill-opacity="0.8"/>
<g clip-path="url(#clip8_1_421)">
<rect x="35" y="115.5" width="36.1667" height="2" rx="1" fill="white" fill-opacity="0.2"/>
<rect x="73.1667" y="115.5" width="36.1667" height="2" rx="1" fill="white" fill-opacity="0.2"/>
<rect x="111.333" y="115.5" width="36.1667" height="2" rx="1" fill="white" fill-opacity="0.2"/>
</g>
<rect x="162.5" y="20" width="154.5" height="150" rx="8" fill="white" fill-opacity="0.12"/>
<path d="M169.12 33.304V32.56H171.52C172.064 32.56 172.48 32.424 172.768 32.152C173.056 31.872 173.2 31.5 173.2 31.036C173.2 30.588 173.056 30.224 172.768 29.944C172.48 29.656 172.064 29.512 171.52 29.512H169.12V28.744H171.52C172.056 28.744 172.516 28.844 172.9 29.044C173.284 29.236 173.576 29.504 173.776 29.848C173.984 30.192 174.088 30.584 174.088 31.024C174.088 31.48 173.984 31.88 173.776 32.224C173.576 32.568 173.284 32.836 172.9 33.028C172.516 33.212 172.056 33.304 171.52 33.304H169.12ZM168.556 37V28.744H169.432V37H168.556ZM173.548 37L170.452 33.184L171.304 32.908L174.676 37H173.548ZM177.79 37.12C177.254 37.12 176.774 36.992 176.35 36.736C175.926 36.472 175.59 36.12 175.342 35.68C175.102 35.24 174.982 34.744 174.982 34.192C174.982 33.632 175.102 33.132 175.342 32.692C175.59 32.244 175.926 31.892 176.35 31.636C176.774 31.372 177.25 31.24 177.778 31.24C178.21 31.24 178.594 31.328 178.93 31.504C179.274 31.672 179.55 31.912 179.758 32.224C179.974 32.528 180.106 32.884 180.154 33.292V35.056C180.106 35.464 179.974 35.824 179.758 36.136C179.55 36.448 179.274 36.692 178.93 36.868C178.594 37.036 178.214 37.12 177.79 37.12ZM177.922 36.316C178.506 36.316 178.974 36.12 179.326 35.728C179.686 35.336 179.866 34.82 179.866 34.18C179.866 33.756 179.782 33.384 179.614 33.064C179.454 32.736 179.226 32.484 178.93 32.308C178.642 32.124 178.302 32.032 177.91 32.032C177.51 32.032 177.154 32.124 176.842 32.308C176.538 32.492 176.294 32.748 176.11 33.076C175.934 33.396 175.846 33.764 175.846 34.18C175.846 34.596 175.934 34.964 176.11 35.284C176.294 35.604 176.542 35.856 176.854 36.04C177.166 36.224 177.522 36.316 177.922 36.316ZM179.818 37V35.488L179.986 34.096L179.818 32.74V31.36H180.658V37H179.818ZM186.226 37V33.688C186.226 33.192 186.078 32.792 185.782 32.488C185.494 32.176 185.11 32.02 184.63 32.02C184.302 32.02 184.014 32.092 183.766 32.236C183.518 32.38 183.322 32.576 183.178 32.824C183.034 33.072 182.962 33.356 182.962 33.676L182.578 33.46C182.578 33.036 182.678 32.656 182.878 32.32C183.078 31.984 183.346 31.72 183.682 31.528C184.026 31.336 184.418 31.24 184.858 31.24C185.29 31.24 185.674 31.344 186.01 31.552C186.346 31.76 186.606 32.04 186.79 32.392C186.982 32.744 187.078 33.128 187.078 33.544V37H186.226ZM182.122 37V31.36H182.962V37H182.122ZM192.045 37L189.165 34.108L191.997 31.36H193.041L189.957 34.324L189.993 33.844L193.161 37H192.045ZM188.409 37V28.504H189.249V37H188.409ZM193.771 37V31.36H194.623V37H193.771ZM194.191 30.136C194.031 30.136 193.895 30.08 193.783 29.968C193.671 29.848 193.615 29.708 193.615 29.548C193.615 29.38 193.671 29.24 193.783 29.128C193.895 29.016 194.031 28.96 194.191 28.96C194.367 28.96 194.507 29.016 194.611 29.128C194.723 29.24 194.779 29.38 194.779 29.548C194.779 29.708 194.723 29.848 194.611 29.968C194.507 30.08 194.367 30.136 194.191 30.136ZM200.19 37V33.688C200.19 33.192 200.042 32.792 199.746 32.488C199.458 32.176 199.074 32.02 198.594 32.02C198.266 32.02 197.978 32.092 197.73 32.236C197.482 32.38 197.286 32.576 197.142 32.824C196.998 33.072 196.926 33.356 196.926 33.676L196.542 33.46C196.542 33.036 196.642 32.656 196.842 32.32C197.042 31.984 197.31 31.72 197.646 31.528C197.99 31.336 198.382 31.24 198.822 31.24C199.254 31.24 199.638 31.344 199.974 31.552C200.31 31.76 200.57 32.04 200.754 32.392C200.946 32.744 201.042 33.128 201.042 33.544V37H200.19ZM196.086 37V31.36H196.926V37H196.086ZM204.701 39.496C204.133 39.496 203.625 39.388 203.177 39.172C202.737 38.964 202.381 38.668 202.109 38.284L202.661 37.732C202.885 38.036 203.169 38.272 203.513 38.44C203.857 38.608 204.261 38.692 204.725 38.692C205.365 38.692 205.873 38.52 206.249 38.176C206.633 37.832 206.825 37.364 206.825 36.772V35.368L206.993 34.084L206.825 32.812V31.36H207.665V36.772C207.665 37.316 207.541 37.792 207.293 38.2C207.045 38.608 206.697 38.924 206.249 39.148C205.809 39.38 205.293 39.496 204.701 39.496ZM204.761 36.94C204.241 36.94 203.773 36.816 203.357 36.568C202.941 36.32 202.613 35.98 202.373 35.548C202.133 35.116 202.013 34.628 202.013 34.084C202.013 33.54 202.129 33.056 202.361 32.632C202.601 32.2 202.929 31.86 203.345 31.612C203.761 31.364 204.229 31.24 204.749 31.24C205.189 31.24 205.581 31.324 205.925 31.492C206.277 31.66 206.557 31.9 206.765 32.212C206.981 32.516 207.113 32.876 207.161 33.292V34.888C207.113 35.296 206.981 35.656 206.765 35.968C206.549 36.272 206.269 36.512 205.925 36.688C205.581 36.856 205.193 36.94 204.761 36.94ZM204.917 36.136C205.309 36.136 205.649 36.052 205.937 35.884C206.233 35.716 206.461 35.48 206.621 35.176C206.789 34.864 206.873 34.5 206.873 34.084C206.873 33.676 206.789 33.32 206.621 33.016C206.461 32.712 206.233 32.472 205.937 32.296C205.641 32.12 205.297 32.032 204.905 32.032C204.513 32.032 204.161 32.12 203.849 32.296C203.545 32.472 203.305 32.712 203.129 33.016C202.961 33.32 202.877 33.676 202.877 34.084C202.877 34.484 202.965 34.84 203.141 35.152C203.317 35.464 203.557 35.708 203.861 35.884C204.165 36.052 204.517 36.136 204.917 36.136Z" fill="white" fill-opacity="0.8"/>
<path d="M261.425 52.7851C253.298 48.2124 243.932 46.3273 234.668 47.3994C225.404 48.4716 216.716 52.446 209.848 58.7543L215.361 64.7578C220.963 59.6127 228.049 56.3711 235.605 55.4967C243.161 54.6222 250.8 56.1597 257.429 59.8892L261.425 52.7851Z" fill="#A24D8F"/>
<path d="M210.713 57.9801C203.681 64.1057 198.767 72.2984 196.673 81.386C194.578 90.4737 195.412 99.9909 199.054 108.576L206.558 105.393C203.588 98.3907 202.908 90.6284 204.616 83.2164C206.324 75.8044 210.332 69.1225 216.067 64.1263L210.713 57.9801Z" fill="#922C7B"/>
<path d="M198.876 108.15C202.428 116.773 208.616 124.052 216.555 128.945C224.494 133.838 233.777 136.096 243.076 135.394L242.463 127.266C234.878 127.838 227.307 125.997 220.832 122.006C214.357 118.015 209.31 112.078 206.413 105.046L198.876 108.15Z" fill="#762063"/>
<path d="M243.119 135.391C252.418 134.68 261.254 131.046 268.363 125.01C275.471 118.974 280.489 110.844 282.698 101.784L274.779 99.8531C272.977 107.243 268.885 113.874 263.087 118.797C257.289 123.72 250.082 126.683 242.498 127.263L243.119 135.391Z" fill="#DB5DBF"/>
<path d="M266.314 129.25C272.887 124.647 278.151 118.416 281.591 111.167C285.031 103.917 286.528 95.8986 285.937 87.8963C285.345 79.8941 282.684 72.1829 278.215 65.5185C273.745 58.8541 267.622 53.4653 260.443 49.88L254.871 61.0374C260.116 63.6572 264.591 67.5949 267.856 72.4646C271.122 77.3344 273.066 82.969 273.499 88.8163C273.931 94.6637 272.837 100.523 270.324 105.82C267.81 111.117 263.963 115.671 259.16 119.034L266.314 129.25Z" fill="#EE4ECA"/>
<circle cx="239.75" cy="91.3127" r="11.7868" fill="#ECEAF8"/>
<g clip-path="url(#clip9_1_421)">
<path d="M244.216 95.7785L242.057 93.62M243.223 90.8165C243.223 93.0088 241.446 94.7861 239.254 94.7861C237.061 94.7861 235.284 93.0088 235.284 90.8165C235.284 88.6241 237.061 86.8469 239.254 86.8469C241.446 86.8469 243.223 88.6241 243.223 90.8165Z" stroke="black" stroke-width="2" stroke-linecap="round" stroke-linejoin="round"/>
</g>
</g>
</g>
<defs>
<linearGradient id="paint0_linear_1_421" x1="160" y1="180" x2="160" y2="0" gradientUnits="userSpaceOnUse">
<stop stop-opacity="0"/>
<stop offset="0.274775" stop-opacity="0.435"/>
<stop offset="1"/>
</linearGradient>
<clipPath id="clip0_1_421">
<rect width="320" height="180" rx="8" fill="white"/>
</clipPath>
<clipPath id="clip1_1_421">
<rect width="13" height="13" fill="white" transform="translate(14 29)"/>
</clipPath>
<clipPath id="clip2_1_421">
<rect width="112.5" height="2" fill="white" transform="translate(35 37.5)"/>
</clipPath>
<clipPath id="clip3_1_421">
<rect width="13" height="13" fill="white" transform="translate(14 55)"/>
</clipPath>
<clipPath id="clip4_1_421">
<rect width="112.5" height="2" fill="white" transform="translate(35 63.5)"/>
</clipPath>
<clipPath id="clip5_1_421">
<rect width="13" height="13" fill="white" transform="translate(14 81)"/>
</clipPath>
<clipPath id="clip6_1_421">
<rect width="112.5" height="2" fill="white" transform="translate(35 89.5)"/>
</clipPath>
<clipPath id="clip7_1_421">
<rect width="12" height="12" fill="white" transform="translate(14.5 107.5)"/>
</clipPath>
<clipPath id="clip8_1_421">
<rect width="112.5" height="2" fill="white" transform="translate(35 115.5)"/>
</clipPath>
<clipPath id="clip9_1_421">
<rect width="11.9089" height="11.9089" fill="white" transform="translate(233.796 85.3583)"/>
</clipPath>
</defs>
</svg>
