<svg width="320" height="180" viewBox="0 0 320 180" fill="none" xmlns="http://www.w3.org/2000/svg">
<mask id="mask0_1_323" style="mask-type:alpha" maskUnits="userSpaceOnUse" x="0" y="0" width="320" height="180">
<rect width="320" height="180" rx="8" fill="url(#paint0_linear_1_323)"/>
</mask>
<g mask="url(#mask0_1_323)">
<rect width="320" height="180" rx="8" fill="white" fill-opacity="0.12"/>
<rect width="320" height="15" fill="white" fill-opacity="0.15"/>
<rect x="10" y="5" width="5" height="5" rx="2.5" fill="#FF3333" fill-opacity="0.5"/>
<rect x="20" y="5" width="5" height="5" rx="2.5" fill="#E6FF00" fill-opacity="0.5"/>
<rect x="30" y="5" width="5" height="5" rx="2.5" fill="#33FF4E" fill-opacity="0.5"/>
<g clip-path="url(#clip0_1_323)">
<rect x="10" y="20" width="142.5" height="72.5" rx="8" fill="white" fill-opacity="0.12"/>
<g clip-path="url(#clip1_1_323)">
<g clip-path="url(#clip2_1_323)">
<path d="M54.75 52.25C54.75 51.6977 55.1977 51.25 55.75 51.25H61.75C62.3023 51.25 62.75 51.6977 62.75 52.25V71.25H54.75V52.25Z" fill="white" fill-opacity="0.15"/>
<rect x="54.75" y="51.52" width="8" height="20" fill="#EE4ECA" fill-opacity="0.7"/>
</g>
<path d="M69.75 62.25C69.75 61.6977 70.1977 61.25 70.75 61.25H76.75C77.3023 61.25 77.75 61.6977 77.75 62.25V71.25H69.75V62.25Z" fill="white" fill-opacity="0.15"/>
<path d="M84.75 47.25C84.75 46.6977 85.1977 46.25 85.75 46.25H91.75C92.3023 46.25 92.75 46.6977 92.75 47.25V71.25H84.75V47.25Z" fill="white" fill-opacity="0.12"/>
<path d="M99.75 42.25C99.75 41.6977 100.198 41.25 100.75 41.25H106.75C107.302 41.25 107.75 41.6977 107.75 42.25V71.25H99.75V42.25Z" fill="white" fill-opacity="0.15"/>
</g>
<rect x="10" y="97.5" width="142.5" height="72.5" rx="8" fill="white" fill-opacity="0.12"/>
<g clip-path="url(#clip3_1_323)">
<rect x="20" y="114.25" width="41.13" height="2" rx="1" fill="white" fill-opacity="0.8"/>
<g clip-path="url(#clip4_1_323)">
<g clip-path="url(#clip5_1_323)">
<rect x="20" y="121.25" width="18.25" height="2" rx="1" fill="white" fill-opacity="0.2"/>
<rect x="40.25" y="121.25" width="18.25" height="2" rx="1" fill="white" fill-opacity="0.2"/>
<rect x="60.5" y="121.25" width="18.25" height="2" rx="1" fill="white" fill-opacity="0.2"/>
</g>
<g clip-path="url(#clip6_1_323)">
<rect x="20" y="127.25" width="28.375" height="2" rx="1" fill="white" fill-opacity="0.2"/>
<rect x="50.375" y="127.25" width="28.375" height="2" rx="1" fill="white" fill-opacity="0.2"/>
</g>
<g clip-path="url(#clip7_1_323)">
<rect x="20" y="133.25" width="18.25" height="2" rx="1" fill="white" fill-opacity="0.2"/>
<rect x="40.25" y="133.25" width="18.25" height="2" rx="1" fill="white" fill-opacity="0.2"/>
<rect x="60.5" y="133.25" width="18.25" height="2" rx="1" fill="white" fill-opacity="0.2"/>
</g>
<g clip-path="url(#clip8_1_323)">
<rect x="20" y="139.25" width="28.375" height="2" rx="1" fill="white" fill-opacity="0.2"/>
<rect x="50.375" y="139.25" width="28.375" height="2" rx="1" fill="white" fill-opacity="0.2"/>
</g>
<g clip-path="url(#clip9_1_323)">
<rect x="20" y="145.25" width="18.25" height="2" rx="1" fill="white" fill-opacity="0.2"/>
<rect x="40.25" y="145.25" width="18.25" height="2" rx="1" fill="white" fill-opacity="0.2"/>
<rect x="60.5" y="145.25" width="18.25" height="2" rx="1" fill="white" fill-opacity="0.2"/>
</g>
<g clip-path="url(#clip10_1_323)">
<rect x="20" y="151.25" width="28.375" height="2" rx="1" fill="white" fill-opacity="0.2"/>
<rect x="50.375" y="151.25" width="28.375" height="2" rx="1" fill="white" fill-opacity="0.2"/>
</g>
</g>
</g>
<g clip-path="url(#clip11_1_323)">
<rect x="83.75" y="114.25" width="41.13" height="2" rx="1" fill="white" fill-opacity="0.8"/>
<g clip-path="url(#clip12_1_323)">
<g clip-path="url(#clip13_1_323)">
<rect x="83.75" y="121.25" width="18.25" height="2" rx="1" fill="white" fill-opacity="0.2"/>
<rect x="104" y="121.25" width="18.25" height="2" rx="1" fill="white" fill-opacity="0.2"/>
<rect x="124.25" y="121.25" width="18.25" height="2" rx="1" fill="white" fill-opacity="0.2"/>
</g>
<g clip-path="url(#clip14_1_323)">
<rect x="83.75" y="127.25" width="28.375" height="2" rx="1" fill="white" fill-opacity="0.2"/>
<rect x="114.125" y="127.25" width="28.375" height="2" rx="1" fill="white" fill-opacity="0.2"/>
</g>
<g clip-path="url(#clip15_1_323)">
<rect x="83.75" y="133.25" width="18.25" height="2" rx="1" fill="white" fill-opacity="0.2"/>
<rect x="104" y="133.25" width="18.25" height="2" rx="1" fill="white" fill-opacity="0.2"/>
<rect x="124.25" y="133.25" width="18.25" height="2" rx="1" fill="white" fill-opacity="0.2"/>
</g>
<g clip-path="url(#clip16_1_323)">
<rect x="83.75" y="139.25" width="28.375" height="2" rx="1" fill="white" fill-opacity="0.2"/>
<rect x="114.125" y="139.25" width="28.375" height="2" rx="1" fill="white" fill-opacity="0.2"/>
</g>
<g clip-path="url(#clip17_1_323)">
<rect x="83.75" y="145.25" width="18.25" height="2" rx="1" fill="white" fill-opacity="0.2"/>
<rect x="104" y="145.25" width="18.25" height="2" rx="1" fill="white" fill-opacity="0.2"/>
<rect x="124.25" y="145.25" width="18.25" height="2" rx="1" fill="white" fill-opacity="0.2"/>
</g>
<g clip-path="url(#clip18_1_323)">
<rect x="83.75" y="151.25" width="28.375" height="2" rx="1" fill="white" fill-opacity="0.2"/>
<rect x="114.125" y="151.25" width="28.375" height="2" rx="1" fill="white" fill-opacity="0.2"/>
</g>
</g>
</g>
</g>
<rect x="157.5" y="20" width="152.5" height="150" rx="8" fill="white" fill-opacity="0.12"/>
<g clip-path="url(#clip19_1_323)">
<g clip-path="url(#clip20_1_323)">
<mask id="mask1_1_323" style="mask-type:luminance" maskUnits="userSpaceOnUse" x="198" y="60" width="69" height="70">
<path d="M232.868 60.945C251.711 60.945 266.986 76.291 266.986 95.222C266.986 114.153 251.711 129.5 232.868 129.5C214.025 129.5 198.75 114.153 198.75 95.222C198.75 76.291 214.025 60.945 232.868 60.945Z" fill="white"/>
</mask>
<g mask="url(#mask1_1_323)">
<path d="M232.868 60.945C251.711 60.945 266.986 76.291 266.986 95.222C266.986 114.153 251.711 129.5 232.868 129.5C214.025 129.5 198.75 114.153 198.75 95.222C198.75 76.291 214.025 60.945 232.868 60.945Z" stroke="#AAAAAA" stroke-width="13.64"/>
</g>
<mask id="mask2_1_323" style="mask-type:luminance" maskUnits="userSpaceOnUse" x="212" y="74" width="42" height="42">
<path d="M232.868 74.656C244.174 74.656 253.339 83.864 253.339 95.222C253.339 106.581 244.174 115.789 232.868 115.789C221.562 115.789 212.397 106.581 212.397 95.222C212.397 83.864 221.562 74.656 232.868 74.656Z" fill="white"/>
</mask>
<g mask="url(#mask2_1_323)">
<path d="M232.868 74.656C244.174 74.656 253.339 83.864 253.339 95.222C253.339 106.581 244.174 115.789 232.868 115.789C221.562 115.789 212.397 106.581 212.397 95.222C212.397 83.864 221.562 74.656 232.868 74.656Z" stroke="#AAAAAA" stroke-width="10.92"/>
</g>
<mask id="mask3_1_323" style="mask-type:luminance" maskUnits="userSpaceOnUse" x="226" y="88" width="14" height="15">
<path d="M232.868 88.367C236.637 88.367 239.692 91.436 239.692 95.222C239.692 99.009 236.637 102.078 232.868 102.078C229.1 102.078 226.045 99.009 226.045 95.222C226.045 91.436 229.1 88.367 232.868 88.367Z" fill="white"/>
</mask>
<g mask="url(#mask3_1_323)">
<path d="M232.868 88.367C236.637 88.367 239.692 91.436 239.692 95.222C239.692 99.009 236.637 102.078 232.868 102.078C229.1 102.078 226.045 99.009 226.045 95.222C226.045 91.436 229.1 88.367 232.868 88.367Z" stroke="#AAAAAA" stroke-width="10.92"/>
</g>
<path d="M232.868 95.222L264.257 63.687L232.868 95.222Z" fill="#EE4ECA"/>
<path d="M232.868 95.222L264.257 63.687" stroke="#EE4ECA" stroke-width="2.31"/>
<path d="M267.506 65.6335L262.515 65.9138L263.141 60.9275L268.132 60.6472L267.506 65.6335Z" fill="#EE4ECA" stroke="#EE4ECA"/>
</g>
</g>
</g>
<defs>
<linearGradient id="paint0_linear_1_323" x1="160" y1="180" x2="160" y2="0" gradientUnits="userSpaceOnUse">
<stop stop-opacity="0"/>
<stop offset="0.274775" stop-opacity="0.435"/>
<stop offset="1"/>
</linearGradient>
<clipPath id="clip0_1_323">
<rect x="10" y="20" width="142.5" height="150" rx="8" fill="white"/>
</clipPath>
<clipPath id="clip1_1_323">
<rect width="53" height="30" fill="white" transform="translate(54.75 41.25)"/>
</clipPath>
<clipPath id="clip2_1_323">
<path d="M54.75 52.25C54.75 51.6977 55.1977 51.25 55.75 51.25H61.75C62.3023 51.25 62.75 51.6977 62.75 52.25V71.25H54.75V52.25Z" fill="white"/>
</clipPath>
<clipPath id="clip3_1_323">
<rect width="58.75" height="39" fill="white" transform="translate(20 114.25)"/>
</clipPath>
<clipPath id="clip4_1_323">
<rect width="58.75" height="32" fill="white" transform="translate(20 121.25)"/>
</clipPath>
<clipPath id="clip5_1_323">
<rect width="58.75" height="2" fill="white" transform="translate(20 121.25)"/>
</clipPath>
<clipPath id="clip6_1_323">
<rect width="58.75" height="2" fill="white" transform="translate(20 127.25)"/>
</clipPath>
<clipPath id="clip7_1_323">
<rect width="58.75" height="2" fill="white" transform="translate(20 133.25)"/>
</clipPath>
<clipPath id="clip8_1_323">
<rect width="58.75" height="2" fill="white" transform="translate(20 139.25)"/>
</clipPath>
<clipPath id="clip9_1_323">
<rect width="58.75" height="2" fill="white" transform="translate(20 145.25)"/>
</clipPath>
<clipPath id="clip10_1_323">
<rect width="58.75" height="2" fill="white" transform="translate(20 151.25)"/>
</clipPath>
<clipPath id="clip11_1_323">
<rect width="58.75" height="39" fill="white" transform="translate(83.75 114.25)"/>
</clipPath>
<clipPath id="clip12_1_323">
<rect width="58.75" height="32" fill="white" transform="translate(83.75 121.25)"/>
</clipPath>
<clipPath id="clip13_1_323">
<rect width="58.75" height="2" fill="white" transform="translate(83.75 121.25)"/>
</clipPath>
<clipPath id="clip14_1_323">
<rect width="58.75" height="2" fill="white" transform="translate(83.75 127.25)"/>
</clipPath>
<clipPath id="clip15_1_323">
<rect width="58.75" height="2" fill="white" transform="translate(83.75 133.25)"/>
</clipPath>
<clipPath id="clip16_1_323">
<rect width="58.75" height="2" fill="white" transform="translate(83.75 139.25)"/>
</clipPath>
<clipPath id="clip17_1_323">
<rect width="58.75" height="2" fill="white" transform="translate(83.75 145.25)"/>
</clipPath>
<clipPath id="clip18_1_323">
<rect width="58.75" height="2" fill="white" transform="translate(83.75 151.25)"/>
</clipPath>
<clipPath id="clip19_1_323">
<rect width="70" height="71" fill="white" transform="translate(198.75 59.5)"/>
</clipPath>
<clipPath id="clip20_1_323">
<rect width="70" height="71" fill="white" transform="translate(198.75 59.5)"/>
</clipPath>
</defs>
</svg>
